<?xml version="1.0" encoding="UTF-8"?><svg id="Capa_2" xmlns="http://www.w3.org/2000/svg" viewBox="0 0 168.11 121.35"><defs><style>.cls-1{fill:#922538;}.cls-2{fill:#1d1d1b;}</style></defs><g id="Capa_1-2"><g><g><path class="cls-2" d="m3.7,75.82c2.28,0,4.42.42,6.42,1.27,2,.84,3.75,2.01,5.25,3.49,1.5,1.49,2.68,3.22,3.54,5.21.86,1.99,1.29,4.12,1.29,6.4s-.43,4.42-1.29,6.4c-.86,1.99-2.04,3.71-3.54,5.18-1.5,1.47-3.25,2.63-5.25,3.47-2,.84-4.14,1.27-6.42,1.27H0v-32.68h3.7Zm0,29.12c1.78,0,3.45-.34,4.99-1.01,1.55-.67,2.9-1.59,4.06-2.74,1.16-1.16,2.07-2.51,2.74-4.06.67-1.55,1.01-3.2,1.01-4.95s-.34-3.45-1.01-4.99c-.67-1.55-1.59-2.9-2.74-4.06-1.16-1.16-2.51-2.07-4.06-2.74-1.55-.67-3.21-1.01-4.99-1.01v25.56Z"/><path class="cls-2" d="m37.28,75.82v3.56h-10.55v17.35h8.72v3.56h-8.72v4.64h10.55v3.56h-14.26v-32.68h14.26Z"/><path class="cls-2" d="m44.27,75.82l6.71,21.15,6.71-21.15h3.7v32.68h-3.7v-21.01l-6.71,21.15-6.71-21.15v21.01h-3.7v-32.68h3.7Z"/><path class="cls-2" d="m82.67,108.51l-1.64-4.78h-11.49l-1.64,4.78h-3.7l11.11-32.83,11.07,32.83h-3.7Zm-11.96-8.35h9.14l-4.55-13.51-4.6,13.51Z"/><path class="cls-2" d="m95.99,108.51h-3.7v-29.12h-6.85v-3.56h17.4v3.56h-6.85v29.12Z"/><path class="cls-2" d="m109.64,75.82v32.68h-3.7v-32.68h3.7Z"/><path class="cls-2" d="m129.19,75.68c.59,0,1.2.05,1.83.14v3.7c-.63-.09-1.24-.14-1.83-.14-1.78,0-3.45.34-4.99,1.01-1.55.67-2.9,1.59-4.06,2.74s-2.07,2.51-2.74,4.06c-.67,1.55-1.01,3.21-1.01,4.99s.34,3.4,1.01,4.95c.67,1.55,1.59,2.9,2.74,4.06,1.16,1.16,2.51,2.07,4.06,2.74,1.55.67,3.21,1.01,4.99,1.01.59,0,1.2-.05,1.83-.14v3.75c-.31.03-.62.05-.91.07-.3.02-.6.02-.91.02-2.28,0-4.42-.43-6.42-1.29-2-.86-3.75-2.03-5.25-3.52-1.5-1.48-2.68-3.23-3.54-5.23-.86-2-1.29-4.14-1.29-6.42s.43-4.42,1.29-6.42c.86-2,2.04-3.75,3.54-5.25,1.5-1.5,3.25-2.68,5.25-3.54,2-.86,4.14-1.29,6.42-1.29Z"/><path class="cls-2" d="m148.56,75.82v3.56h-10.55v17.35h8.72v3.56h-8.72v4.64h10.55v3.56h-14.26v-32.68h14.26Z"/><path class="cls-2" d="m154.84,82.62c0,.72.11,1.34.33,1.88.22.53.51,1.01.87,1.43.36.42.78.81,1.27,1.17.48.36.99.7,1.52,1.01,1.16.69,2.29,1.39,3.4,2.11,1.11.72,2.1,1.52,2.98,2.39.87.88,1.58,1.88,2.11,3,.53,1.13.8,2.45.8,3.99,0,1.16-.22,2.28-.66,3.38-.44,1.09-1.04,2.06-1.81,2.91-.77.84-1.66,1.52-2.7,2.02-1.03.5-2.16.75-3.38.75-1.09,0-2.15-.2-3.17-.61-1.02-.41-1.92-.98-2.7-1.71-.78-.73-1.41-1.59-1.88-2.56-.47-.97-.7-2.02-.7-3.14h3.7c0,.59.13,1.16.4,1.69.27.53.62.99,1.08,1.38.45.39.96.7,1.52.91.56.22,1.14.33,1.73.33.69,0,1.32-.16,1.9-.47.58-.31,1.09-.73,1.52-1.24.44-.52.78-1.09,1.03-1.71.25-.62.38-1.27.38-1.92,0-1.41-.33-2.56-.98-3.47-.66-.91-1.48-1.7-2.46-2.39-.98-.69-2.05-1.34-3.19-1.95-1.14-.61-2.2-1.3-3.19-2.09-.98-.78-1.81-1.73-2.46-2.84-.66-1.11-.98-2.52-.98-4.24,0-1,.19-1.92.59-2.77.39-.84.92-1.58,1.59-2.2.67-.62,1.45-1.11,2.32-1.45.87-.34,1.8-.52,2.77-.52s1.88.17,2.72.52c.84.34,1.59.83,2.23,1.45.64.63,1.14,1.36,1.5,2.2.36.84.54,1.77.54,2.77h-3.7c0-.91-.3-1.67-.89-2.3-.59-.62-1.39-.94-2.39-.94s-1.85.31-2.53.94c-.69.63-1.03,1.39-1.03,2.3Z"/></g><g><path class="cls-2" d="m24.78,112.45c.15,0,.31.01.47.04v.95c-.16-.02-.32-.04-.47-.04-.46,0-.89.09-1.28.26-.4.17-.75.41-1.04.71-.3.3-.53.65-.71,1.04-.17.4-.26.83-.26,1.28s.09.87.26,1.27c.17.4.41.75.71,1.04s.65.53,1.04.71c.4.17.83.26,1.28.26.15,0,.31-.01.47-.04v.96c-.08,0-.16.01-.24.02s-.15,0-.24,0c-.59,0-1.14-.11-1.65-.33-.51-.22-.96-.52-1.35-.9-.39-.38-.69-.83-.91-1.34-.22-.51-.33-1.07-.33-1.65s.11-1.14.33-1.65c.22-.51.52-.96.91-1.35s.84-.69,1.35-.91c.51-.22,1.07-.33,1.65-.33Z"/><path class="cls-2" d="m29.1,113.36c.51,0,1,.1,1.46.3s.86.47,1.21.81c.34.35.61.75.81,1.21.2.46.3.94.3,1.46s-.1,1.02-.3,1.48c-.2.46-.47.86-.81,1.21-.35.34-.75.61-1.21.81-.46.2-.95.3-1.47.3s-1.01-.1-1.47-.3c-.46-.2-.86-.47-1.21-.81-.35-.34-.62-.74-.81-1.21-.2-.46-.3-.95-.3-1.48s.1-1.01.3-1.47c.2-.46.47-.86.81-1.2.35-.34.75-.61,1.21-.81.46-.2.95-.3,1.47-.3Zm0,.95c-.39,0-.76.07-1.1.22-.34.15-.64.35-.9.6-.26.25-.46.55-.61.9-.15.35-.22.71-.22,1.1s.07.76.22,1.1c.15.34.35.64.61.9s.56.46.9.61c.34.15.71.22,1.1.22s.76-.07,1.1-.22c.34-.15.64-.35.9-.61s.46-.56.61-.9c.15-.34.22-.71.22-1.1s-.07-.75-.22-1.09c-.15-.34-.35-.64-.61-.9-.26-.26-.56-.46-.9-.61-.35-.15-.71-.22-1.1-.22Z"/><path class="cls-2" d="m33.6,113.4h1.27c.41,0,.8.06,1.16.17.36.12.68.29.96.52.28.23.5.51.66.84s.24.72.24,1.15c0,.61-.15,1.12-.46,1.53-.31.41-.7.71-1.19.9l1.65,2.36h-1.05l-1.51-2.13c-.13.02-.26.02-.38.02h-.39v2.11h-.95v-7.49Zm.95,4.46h.31c.27,0,.52-.04.77-.11.25-.07.47-.18.66-.33.19-.14.35-.33.46-.55s.17-.48.17-.79-.06-.57-.17-.8-.27-.41-.46-.55c-.19-.14-.41-.25-.66-.32-.25-.07-.5-.1-.77-.1h-.31v3.54Z"/><path class="cls-2" d="m38.13,113.4h4.28v.92h-1.66v6.57h-.95v-6.57h-1.66v-.92Z"/><path class="cls-2" d="m44.08,113.4v7.49h-.95v-7.49h.95Z"/><path class="cls-2" d="m49.28,113.4v7.49h-.95l-2.45-5.38v5.38h-.95v-7.49h.95l2.45,5.38v-5.38h.95Z"/><path class="cls-2" d="m55.43,120.89h-.96l-.42-1.17h-2.71l-.43,1.17h-.95l2.74-7.49,2.75,7.49Zm-2.75-4.88l-1.01,2.8h2.04l-1.02-2.8Z"/><path class="cls-2" d="m59.9,118.86c0,.28-.05.55-.16.8-.11.25-.26.47-.45.66-.19.18-.41.33-.66.44-.25.11-.52.16-.81.16s-.56-.05-.81-.16-.47-.26-.66-.44-.34-.4-.45-.66c-.11-.25-.16-.52-.16-.8h.95c0,.15.03.3.09.43.06.14.14.26.24.36.1.1.22.18.36.24s.28.08.43.08.3-.03.43-.08c.14-.06.26-.13.36-.24.1-.1.18-.22.24-.36.06-.14.09-.28.09-.43,0-.27-.08-.5-.24-.71-.16-.21-.35-.4-.59-.58-.24-.18-.49-.36-.77-.53-.28-.17-.53-.35-.77-.54-.24-.19-.43-.39-.59-.61-.16-.22-.24-.47-.24-.75,0-.26.05-.49.15-.71.1-.22.24-.4.41-.56.17-.16.37-.28.6-.37s.46-.13.71-.13.48.04.7.13.41.21.57.37c.16.16.29.34.39.56.09.22.14.45.14.71h-.95c0-.23-.08-.43-.23-.58-.15-.16-.36-.24-.62-.24s-.47.08-.65.24c-.18.16-.27.35-.27.58,0,.17.08.33.24.48.16.15.35.31.59.47s.49.33.77.51.53.38.77.6c.24.22.43.47.59.74.16.27.24.58.24.92Z"/><path class="cls-2" d="m61.1,119.71c.16,0,.3.06.42.17.12.12.17.26.17.42,0,.11-.04.24-.12.37l-.39.68h-.42l.23-.47c-.14-.02-.25-.09-.34-.2s-.14-.24-.14-.38c0-.16.06-.3.17-.42s.26-.17.42-.17Z"/><path class="cls-2" d="m68.68,113.4v.92h-2.54v3.54h2.06v.92h-2.06v1.19h2.54v.92h-3.5v-7.49h3.5Z"/><path class="cls-2" d="m73.49,118.86c0,.28-.05.55-.16.8-.11.25-.26.47-.45.66-.19.18-.41.33-.66.44-.25.11-.52.16-.81.16s-.56-.05-.81-.16-.47-.26-.66-.44-.34-.4-.45-.66c-.11-.25-.16-.52-.16-.8h.95c0,.15.03.3.09.43.06.14.14.26.24.36.1.1.22.18.36.24s.28.08.43.08.3-.03.43-.08c.14-.06.26-.13.36-.24.1-.1.18-.22.24-.36.06-.14.09-.28.09-.43,0-.27-.08-.5-.24-.71-.16-.21-.35-.4-.59-.58-.24-.18-.49-.36-.77-.53-.28-.17-.53-.35-.77-.54-.24-.19-.43-.39-.59-.61-.16-.22-.24-.47-.24-.75,0-.26.05-.49.15-.71.1-.22.24-.4.41-.56.17-.16.37-.28.6-.37s.46-.13.71-.13.48.04.7.13.41.21.57.37c.16.16.29.34.39.56.09.22.14.45.14.71h-.95c0-.23-.08-.43-.23-.58-.15-.16-.36-.24-.62-.24s-.47.08-.65.24c-.18.16-.27.35-.27.58,0,.17.08.33.24.48.16.15.35.31.59.47s.49.33.77.51.53.38.77.6c.24.22.43.47.59.74.16.27.24.58.24.92Z"/><path class="cls-2" d="m73.49,113.4h4.28v.92h-1.66v6.57h-.95v-6.57h-1.66v-.92Z"/><path class="cls-2" d="m79.45,113.4v7.49h-.95v-7.49h.95Z"/><path class="cls-2" d="m81.25,119.97h2.54v.92h-3.5v-7.49h.95v6.57Z"/><path class="cls-2" d="m87.58,113.36c.51,0,1,.1,1.46.3s.86.47,1.21.81c.34.35.61.75.81,1.21.2.46.3.94.3,1.46s-.1,1.02-.3,1.48c-.2.46-.47.86-.81,1.21-.35.34-.75.61-1.21.81-.46.2-.95.3-1.47.3s-1.01-.1-1.47-.3c-.46-.2-.86-.47-1.21-.81-.35-.34-.62-.74-.81-1.21-.2-.46-.3-.95-.3-1.48s.1-1.01.3-1.47c.2-.46.47-.86.81-1.2.35-.34.75-.61,1.21-.81.46-.2.95-.3,1.47-.3Zm0,.95c-.39,0-.76.07-1.1.22-.34.15-.64.35-.9.6-.26.25-.46.55-.61.9-.15.35-.22.71-.22,1.1s.07.76.22,1.1c.15.34.35.64.61.9s.56.46.9.61c.34.15.71.22,1.1.22s.76-.07,1.1-.22c.34-.15.64-.35.9-.61s.46-.56.61-.9c.15-.34.22-.71.22-1.1s-.07-.75-.22-1.09c-.15-.34-.35-.64-.61-.9-.26-.26-.56-.46-.9-.61-.35-.15-.71-.22-1.1-.22Z"/><path class="cls-2" d="m95.57,113.4l1.83,3.23,1.83-3.23h.95l-2.3,4.04v3.45h-.95v-3.45l-2.3-4.04h.95Z"/><path class="cls-2" d="m107.06,113.4v.92h-2.54v3.54h2.06v.92h-2.06v1.19h2.54v.92h-3.5v-7.49h3.5Z"/><path class="cls-2" d="m108.86,119.97h2.54v.92h-3.5v-7.49h.95v6.57Z"/><path class="cls-2" d="m115.74,113.4v.92h-2.54v3.54h2.06v.92h-2.06v1.19h2.54v.92h-3.5v-7.49h3.5Z"/><path class="cls-2" d="m119.89,113.36c.16,0,.32.01.48.04v.95c-.16-.02-.32-.04-.48-.04-.39,0-.76.07-1.1.22-.34.15-.64.35-.9.6-.26.25-.46.55-.61.9-.15.35-.22.71-.22,1.1s.07.76.22,1.1c.15.34.35.64.61.9s.56.46.9.61c.34.15.71.22,1.1.22v-2.11h-.95v-.92h1.91v3.94h-.95c-.52,0-1.01-.1-1.47-.29-.46-.19-.86-.46-1.21-.8-.35-.34-.62-.74-.81-1.19-.2-.46-.3-.95-.3-1.47s.1-1.01.3-1.47c.2-.46.47-.86.81-1.2.35-.34.75-.61,1.21-.81.46-.2.95-.3,1.47-.3Z"/><path class="cls-2" d="m127.05,120.89h-.96l-.42-1.17h-2.71l-.43,1.17h-.95l2.74-7.49,2.75,7.49Zm-2.75-4.88l-1.01,2.8h2.04l-1.02-2.8Z"/><path class="cls-2" d="m132.13,113.4v7.49h-.95l-2.45-5.38v5.38h-.95v-7.49h.95l2.45,5.38v-5.38h.95Z"/><path class="cls-2" d="m136.7,113.36c.16,0,.32.01.48.04v.95c-.16-.02-.32-.04-.48-.04-.39,0-.76.07-1.1.22-.34.15-.64.35-.9.6-.26.25-.46.55-.61.9-.15.35-.22.71-.22,1.1s.07.76.22,1.1c.15.34.35.64.61.9s.56.46.9.61c.34.15.71.22,1.1.22.16,0,.32-.01.48-.04v.95c-.16.02-.32.04-.48.04-.52,0-1.01-.1-1.47-.3-.46-.2-.86-.47-1.21-.81-.35-.34-.62-.74-.81-1.21-.2-.46-.3-.95-.3-1.48s.1-1.01.3-1.47c.2-.46.47-.86.81-1.2.35-.34.75-.61,1.21-.81.46-.2.95-.3,1.47-.3Z"/><path class="cls-2" d="m138.98,113.4v7.49h-.95v-7.49h.95Z"/><path class="cls-2" d="m145.13,120.89h-.96l-.42-1.17h-2.71l-.43,1.17h-.95l2.74-7.49,2.75,7.49Zm-2.75-4.88l-1.01,2.8h2.04l-1.02-2.8Z"/></g><g><polygon class="cls-1" points="46.54 60.07 81.01 51.61 80.19 41.41 45.48 55.47 46.54 60.07"/><polygon class="cls-1" points="44.26 55.97 35.2 59.64 35.45 62.8 45.3 60.38 44.26 55.97"/></g><polygon class="cls-2" points="110.81 33.88 110.81 7.89 97.12 7.89 97.12 20.19 76.93 0 18.21 58.73 20.73 61.25 76.93 5.05 144.04 72.16 146.57 69.64 110.81 33.88"/><g><polygon class="cls-1" points="44.03 49.22 78.99 26.52 78.04 14.6 43.25 45.82 44.03 49.22"/><polygon class="cls-1" points="42.11 46.84 34.7 53.49 34.84 55.19 42.85 49.99 42.11 46.84"/></g><g><polygon class="cls-1" points="45.11 53.9 80.05 39.74 79.16 28.55 44.34 50.55 45.11 53.9"/><polygon class="cls-1" points="43.16 51.3 34.95 56.49 35.06 57.97 43.89 54.39 43.16 51.3"/></g></g></g></svg>